<svg width="10" height="16" viewBox="0 0 10 16" fill="none" xmlns="http://www.w3.org/2000/svg">
<path d="M8.01844 15.6834L0.25347 8.59103C0.161304 8.5066 0.0958668 8.41513 0.0571572 8.31662C0.0184475 8.21812 -0.000600038 8.11258 1.44009e-05 8C1.44009e-05 7.88742 0.0193692 7.78188 0.0580788 7.68338C0.0967885 7.58487 0.161919 7.4934 0.25347 7.40897L8.01844 0.295514C8.23349 0.0985048 8.50231 0 8.82489 0C9.14747 0 9.42396 0.105541 9.65438 0.316623C9.88479 0.527704 10 0.773967 10 1.05541C10 1.33685 9.88479 1.58311 9.65438 1.7942L2.88019 8L9.65438 14.2058C9.86943 14.4028 9.97696 14.6457 9.97696 14.9345C9.97696 15.2232 9.86175 15.4729 9.63134 15.6834C9.40092 15.8945 9.13211 16 8.82489 16C8.51767 16 8.24885 15.8945 8.01844 15.6834Z" fill="white"/>
</svg>
