<svg width="32" height="30" viewBox="0 0 32 30" fill="none" xmlns="http://www.w3.org/2000/svg">
<path d="M28.5008 17.1827L18.5423 27.8917C17.882 28.6013 16.9866 29 16.0531 29C15.1195 29 14.2241 28.6013 13.5639 27.8917L3.60535 17.1846C2.78214 16.3072 2.12821 15.2637 1.68112 14.1138C1.23402 12.964 1.00256 11.7306 1.00002 10.4843C0.997483 9.23804 1.22392 8.00352 1.66633 6.8516C2.10873 5.69968 2.7584 4.65306 3.57803 3.77182C4.39766 2.89058 5.37111 2.19208 6.44249 1.71641C7.51388 1.24075 8.66209 0.997294 9.82122 1.00002C10.9804 1.00275 12.1276 1.25161 13.197 1.73231C14.2664 2.21302 15.237 2.9161 16.0531 3.80119C17.7106 2.06343 19.9381 1.09776 22.2532 1.11335C24.5683 1.12895 26.7844 2.12456 28.4215 3.88451C30.0587 5.64446 30.985 8.02704 30.9998 10.5161C31.0147 13.0052 30.1168 15.4003 28.5008 17.1827Z" stroke="white" stroke-linecap="round" stroke-linejoin="round"/>
</svg>
