<svg width="30" height="27" viewBox="0 0 30 27" fill="none" xmlns="http://www.w3.org/2000/svg">
<path d="M15 27C14.5368 26.9994 14.0845 26.863 13.702 26.6084C8.03475 22.8572 5.58079 20.2852 4.22726 18.6771C1.3428 15.2494 -0.0381395 11.7302 0.000800739 7.9193C0.046231 3.55219 3.63955 0 8.01095 0C11.1896 0 13.3912 1.74586 14.6733 3.19992C14.714 3.24552 14.7641 3.28208 14.8205 3.30714C14.8768 3.3322 14.9381 3.34516 15 3.34516C15.0619 3.34516 15.1232 3.3322 15.1795 3.30714C15.2359 3.28208 15.2861 3.24552 15.3267 3.19992C16.6088 1.74445 18.8104 0 21.9891 0C26.3605 0 29.9538 3.55219 29.9992 7.92C30.0381 11.7316 28.6558 15.2508 25.7727 18.6778C24.4192 20.2859 21.9653 22.8579 16.298 26.6091C15.9154 26.8634 15.4631 26.9996 15 27Z" fill="#FF0000"/>
</svg>
