<svg width="30" height="28" viewBox="0 0 30 28" fill="none" xmlns="http://www.w3.org/2000/svg">
<path d="M26.8413 11.0534C26.8413 10.858 26.7581 10.6706 26.6101 10.5324C26.4621 10.3942 26.2613 10.3166 26.0519 10.3166C25.8425 10.3166 25.6417 10.3942 25.4937 10.5324C25.3456 10.6706 25.2625 10.858 25.2625 11.0534H26.8413ZM4.73752 11.0534C4.73752 10.858 4.65435 10.6706 4.50631 10.5324C4.35826 10.3942 4.15747 10.3166 3.9481 10.3166C3.73874 10.3166 3.53794 10.3942 3.3899 10.5324C3.24185 10.6706 3.15868 10.858 3.15868 11.0534H4.73752ZM28.6507 14.5223C28.7989 14.6607 28.9999 14.7384 29.2096 14.7384C29.4192 14.7384 29.6203 14.6607 29.7685 14.5223C29.9167 14.384 30 14.1963 30 14.0007C30 13.805 29.9167 13.6174 29.7685 13.479L28.6507 14.5223ZM15 0.738125L15.5589 0.216465C15.4856 0.147849 15.3985 0.0934091 15.3026 0.0562645C15.2067 0.0191199 15.1038 0 15 0C14.8962 0 14.7933 0.0191199 14.6974 0.0562645C14.6015 0.0934091 14.5144 0.147849 14.4411 0.216465L15 0.738125ZM0.231508 13.479C0.0832758 13.6174 0 13.805 0 14.0007C0 14.1963 0.0832758 14.384 0.231508 14.5223C0.37974 14.6607 0.580786 14.7384 0.790418 14.7384C1.00005 14.7384 1.2011 14.6607 1.34933 14.5223L0.231508 13.479ZM7.10579 28H22.8942V26.5264H7.10579V28ZM26.8413 24.316V11.0534H25.2625V24.316H26.8413ZM4.73752 24.316V11.0534H3.15868V24.316H4.73752ZM29.7685 13.479L15.5589 0.216465L14.4411 1.25978L28.6507 14.5223L29.7685 13.479ZM14.4411 0.216465L0.231508 13.479L1.34933 14.5223L15.5589 1.25978L14.4411 0.216465ZM22.8942 28C23.941 28 24.945 27.6119 25.6852 26.921C26.4255 26.2301 26.8413 25.293 26.8413 24.316H25.2625C25.2625 24.9022 25.013 25.4644 24.5688 25.879C24.1247 26.2935 23.5223 26.5264 22.8942 26.5264V28ZM7.10579 26.5264C6.47768 26.5264 5.87531 26.2935 5.43117 25.879C4.98704 25.4644 4.73752 24.9022 4.73752 24.316H3.15868C3.15868 25.293 3.57454 26.2301 4.31476 26.921C5.05499 27.6119 6.05895 28 7.10579 28V26.5264Z" fill="white"/>
</svg>
