<svg width="30" height="28" viewBox="0 0 30 28" fill="none" xmlns="http://www.w3.org/2000/svg">
<path fill-rule="evenodd" clip-rule="evenodd" d="M16.0789 0.409905C15.7976 0.147443 15.4162 0 15.0184 0C14.6207 0 14.2392 0.147443 13.9579 0.409905L3.45793 10.21L0.457932 13.01C0.314667 13.1392 0.200394 13.2937 0.12178 13.4645C0.0431668 13.6353 0.00178736 13.819 5.66351e-05 14.0049C-0.00167409 14.1908 0.0362785 14.3751 0.1117 14.5472C0.187121 14.7192 0.298501 14.8756 0.43934 15.007C0.580179 15.1385 0.747657 15.2424 0.932001 15.3128C1.11635 15.3832 1.31387 15.4186 1.51303 15.417C1.7122 15.4154 1.90903 15.3768 2.09204 15.3034C2.27505 15.23 2.44056 15.1234 2.57893 14.9897L3.01843 14.5795V23.8C3.01843 24.9139 3.49254 25.9822 4.33645 26.7698C5.18037 27.5575 6.32496 28 7.51843 28H22.5184C23.7119 28 24.8565 27.5575 25.7004 26.7698C26.5443 25.9822 27.0184 24.9139 27.0184 23.8V14.5795L27.4579 14.9897C27.7408 15.2447 28.1197 15.3858 28.513 15.3826C28.9063 15.3794 29.2825 15.2322 29.5607 14.9726C29.8388 14.713 29.9965 14.3619 29.9999 13.9948C30.0034 13.6277 29.8522 13.2741 29.5789 13.01L16.0789 0.409905Z" fill="white"/>
</svg>
