<svg width="14" height="13" viewBox="0 0 14 13" fill="none" xmlns="http://www.w3.org/2000/svg">
<path d="M13.9892 5.20558C14.0592 4.86494 13.7794 4.45618 13.4296 4.45618L9.44272 3.91116L7.62412 0.368538C7.55417 0.232283 7.48423 0.164156 7.34434 0.0960282C6.99461 -0.108354 6.57493 0.0279009 6.36509 0.368538L4.61644 3.91116L0.629515 4.45618C0.419676 4.45618 0.279784 4.52431 0.209838 4.66056C-0.069946 4.93307 -0.069946 5.34184 0.209838 5.61434L3.07763 8.33944L2.37817 12.2227C2.37817 12.359 2.37817 12.4952 2.44811 12.6315C2.65795 12.9721 3.07763 13.1084 3.42736 12.904L6.99461 11.0645L10.5619 12.904C10.6318 12.9721 10.7717 12.9721 10.9116 12.9721H11.0515C11.4012 12.904 11.681 12.5633 11.611 12.1546L10.9116 8.27131L13.7794 5.54622C13.9193 5.47809 13.9892 5.34184 13.9892 5.20558Z" fill="#FF9900"/>
</svg>
